<?xml version="1.0" encoding="UTF-8" standalone="no"?>
<!-- Created with Inkscape (http://www.inkscape.org/) -->

<svg
   width="21.886547mm"
   height="21.886547mm"
   viewBox="0 0 21.886547 21.886547"
   version="1.1"
   id="svg1"
   xml:space="preserve"
   inkscape:version="1.4 (e7c3feb1, 2024-10-09)"
   sodipodi:docname="ode4ec.svg"
   xmlns:inkscape="http://www.inkscape.org/namespaces/inkscape"
   xmlns:sodipodi="http://sodipodi.sourceforge.net/DTD/sodipodi-0.dtd"
   xmlns="http://www.w3.org/2000/svg"
   xmlns:svg="http://www.w3.org/2000/svg"><sodipodi:namedview
     id="namedview1"
     pagecolor="#ffffff"
     bordercolor="#000000"
     borderopacity="0.25"
     inkscape:showpageshadow="2"
     inkscape:pageopacity="0.0"
     inkscape:pagecheckerboard="0"
     inkscape:deskcolor="#d1d1d1"
     inkscape:document-units="mm"
     inkscape:zoom="1.4745555"
     inkscape:cx="-137.32952"
     inkscape:cy="171.91621"
     inkscape:window-width="2560"
     inkscape:window-height="1382"
     inkscape:window-x="0"
     inkscape:window-y="30"
     inkscape:window-maximized="0"
     inkscape:current-layer="g4-4-2-5"
     showgrid="false"><inkscape:grid
       id="grid3"
       units="mm"
       originx="-167.03248"
       originy="-18.064539"
       spacingx="0.99999998"
       spacingy="1"
       empcolor="#0099e5"
       empopacity="0.30196078"
       color="#0099e5"
       opacity="0.14901961"
       empspacing="5"
       enabled="true"
       visible="false" /></sodipodi:namedview><defs
     id="defs1"><rect
       x="69.786545"
       y="136.03168"
       width="40.205383"
       height="14.790581"
       id="rect3" /></defs><g
     inkscape:label="Layer 1"
     inkscape:groupmode="layer"
     id="layer1"
     transform="translate(-167.03249,-18.064539)"><text
       xml:space="preserve"
       transform="matrix(0.26458333,0,0,0.26458333,50.32226,-12.456551)"
       id="text3"
       style="font-style:normal;font-variant:normal;font-weight:bold;font-stretch:normal;font-size:12px;font-family:Domine;-inkscape-font-specification:'Domine Bold';text-align:center;letter-spacing:0px;writing-mode:lr-tb;direction:ltr;white-space:pre;shape-inside:url(#rect3);display:inline;fill:none;stroke:#404040;stroke-width:0.566929" /><g
       id="g4-4-2-5"
       transform="matrix(3.1266495,0,0,3.1266495,-56.52295,-42.905126)"
       inkscape:export-filename="ode4ec-1024px.png"
       inkscape:export-xdpi="1188.38"
       inkscape:export-ydpi="1188.38"><rect
         style="fill:#004494;fill-opacity:1;stroke-width:0.227843"
         id="rect1-6-9-7"
         width="7"
         height="7"
         x="71.5"
         y="19.5"
         ry="0.50952381"
         rx="0.55111116" /><path
         style="font-weight:bold;font-size:2.82222px;font-family:Domine;-inkscape-font-specification:'Domine Bold';fill:#ffffff;stroke-width:0.264583"
         d="m 73.907075,21.500474 q 0,0.234244 -0.06773,0.451555 -0.06773,0.217311 -0.214489,0.369711 -0.121355,0.124178 -0.290689,0.186267 -0.169333,0.05927 -0.406399,0.05927 -0.237067,0 -0.4064,-0.05927 -0.169333,-0.05927 -0.285044,-0.1778 -0.121356,-0.127 -0.197556,-0.3302 -0.07338,-0.206022 -0.07338,-0.454377 0,-0.245534 0.07338,-0.460022 0.0762,-0.217311 0.208845,-0.361244 0.118533,-0.127 0.285044,-0.186267 0.166511,-0.05927 0.403577,-0.05927 0.225778,0 0.397933,0.05645 0.172156,0.05644 0.299156,0.180622 0.146755,0.146755 0.208844,0.3556 0.06491,0.206022 0.06491,0.428977 z m -1.532465,-0.0085 q 0,0.220134 0.03951,0.389467 0.04233,0.169333 0.112889,0.276577 0.06773,0.104422 0.169333,0.158045 0.1016,0.05362 0.248355,0.05362 0.265289,0 0.400755,-0.186267 0.07338,-0.09878 0.112889,-0.259644 0.03951,-0.160866 0.03951,-0.383822 0,-0.222955 -0.04233,-0.386644 -0.03951,-0.166511 -0.112889,-0.270933 -0.07338,-0.107244 -0.180622,-0.158044 -0.104422,-0.0508 -0.237066,-0.0508 -0.132645,0 -0.231422,0.0508 -0.09596,0.04798 -0.160867,0.135466 -0.158044,0.208844 -0.158044,0.632177 z m 2.345265,0.835378 h 0.352777 q 0.1524,0 0.259644,-0.04516 0.107245,-0.04798 0.180622,-0.141111 0.0762,-0.09596 0.115711,-0.245533 0.03951,-0.149578 0.03951,-0.3556 0,-0.400755 -0.155222,-0.612422 -0.0762,-0.104422 -0.191911,-0.155222 -0.112888,-0.05362 -0.276577,-0.05362 h -0.324555 z m -0.603956,-1.820332 h 1.032933 q 0.420511,0 0.654755,0.237066 0.132644,0.135467 0.2032,0.333022 0.07055,0.197555 0.07055,0.423333 0,0.237067 -0.0762,0.445911 -0.07338,0.206022 -0.206022,0.347133 -0.234244,0.245533 -0.671688,0.245533 h -1.007533 v -0.163689 l 0.237067,-0.05927 v -1.586088 l -0.237067,-0.05927 z m 3.445932,1.36031 h -0.2286 l -0.04798,-0.265289 h -0.386644 v 0.725311 h 0.77611 l 0.07902,-0.417689 h 0.248355 v 0.629355 h -1.735665 v -0.163689 l 0.265288,-0.05927 v -1.586088 l -0.265288,-0.05927 v -0.163688 h 1.673576 v 0.59831 h -0.231422 l -0.08184,-0.392288 h -0.728133 v 0.677332 h 0.386644 l 0.04798,-0.26811 h 0.2286 z"
         id="text1-4-7-1"
         aria-label="ODE" /><path
         style="font-weight:bold;font-size:2.82222px;font-family:Domine;-inkscape-font-specification:'Domine Bold';fill:#ffd617;stroke-width:0.264583"
         d="M 72.811769,25.251672 V 24.904539 H 71.99897 l -0.04233,-0.166511 0.905933,-1.33491 h 0.307622 v 1.298221 h 0.307622 l -0.02822,0.2032 h -0.2794 v 0.347133 l 0.217311,0.05362 v 0.158044 h -0.849488 v -0.158044 z m 0,-1.447799 -0.575733,0.897466 h 0.575733 z"
         id="text1-3-8-6-6"
         aria-label="4" /><path
         style="font-weight:bold;font-size:2.82222px;font-family:Domine;-inkscape-font-specification:'Domine Bold';fill:#ffffff;stroke-width:0.264583"
         d="m 75.566845,24.764202 h -0.2286 l -0.04798,-0.265289 h -0.386644 v 0.725311 h 0.77611 l 0.07902,-0.417689 h 0.248356 v 0.629355 h -1.735665 v -0.163689 l 0.265288,-0.05927 v -1.586088 l -0.265288,-0.05927 v -0.163689 h 1.673576 v 0.59831 H 75.7136 l -0.08184,-0.392288 h -0.728133 v 0.677333 h 0.386644 l 0.04798,-0.268111 h 0.2286 z m 1.636887,-1.193799 q -0.107244,0 -0.206022,0.04516 -0.09596,0.04516 -0.155222,0.129822 -0.0762,0.110067 -0.129822,0.276578 -0.0508,0.163689 -0.0508,0.364066 0,0.200378 0.04233,0.375356 0.04233,0.174977 0.118533,0.29351 0.06209,0.09596 0.166511,0.141111 0.107245,0.04516 0.239889,0.04516 0.474133,0 0.555977,-0.476955 h 0.239889 q -0.138289,0.69991 -0.857955,0.69991 -0.389466,0 -0.620888,-0.225777 -0.138289,-0.135467 -0.211667,-0.341489 -0.07338,-0.206022 -0.07338,-0.457199 0,-0.285045 0.09313,-0.516467 0.09313,-0.231422 0.262466,-0.369711 0.214489,-0.177799 0.567267,-0.177799 0.174977,0 0.285044,0.04516 0.110066,0.04516 0.217311,0.160867 l 0.05644,-0.1778 h 0.239889 v 0.666044 h -0.256822 q -0.03951,-0.248356 -0.1778,-0.372533 -0.135467,-0.127 -0.344311,-0.127 z"
         id="text1-3-7-00-3-3"
         aria-label="EC" /></g></g></svg>
